<svg width="38" height="24" viewBox="0 0 38 24" fill="none" xmlns="http://www.w3.org/2000/svg">
<g clip-path="url(#clip0_93_74)">
<path opacity="0.07" d="M35 0H3C1.3 0 0 1.3 0 3V21C0 22.7 1.4 24 3 24H35C36.7 24 38 22.7 38 21V3C38 1.3 36.6 0 35 0Z" fill="black"/>
<path d="M35 1C36.1 1 37 1.9 37 3V21C37 22.1 36.1 23 35 23H3C1.9 23 1 22.1 1 21V3C1 1.9 1.9 1 3 1H35Z" fill="#006FCF"/>
<path d="M22.0122 19.936V11.515L37.0002 11.528V13.854L35.2682 15.706L37.0002 17.573V19.948H34.2342L32.7642 18.326L31.3042 19.954L22.0122 19.934V19.936Z" fill="white"/>
<path d="M23.0132 19.012V12.442H28.5852V13.955H24.8172V14.983H28.4952V16.471H24.8172V17.481H28.5852V19.012H23.0132Z" fill="#006FCF"/>
<path d="M28.5571 19.012L31.6401 15.723L28.5571 12.441H30.9431L32.8271 14.524L34.7171 12.442H37.0001V12.493L33.9831 15.723L37.0001 18.92V19.013H34.6931L32.7761 16.91L30.8781 19.014H28.5571V19.012Z" fill="#006FCF"/>
<path d="M22.71 4.04004H26.324L27.593 6.92104V4.04004H32.053L32.823 6.19904L33.594 4.04004H37V12.461H19L22.71 4.04004Z" fill="white"/>
<path d="M23.395 4.95496L20.479 11.521H22.479L23.029 10.206H26.009L26.559 11.521H28.609L25.705 4.95496H23.395ZM23.645 8.73196L24.52 6.64196L25.393 8.73196H23.645Z" fill="#006FCF"/>
<path d="M28.5811 11.52V4.953L31.3921 4.963L32.8401 9L34.2961 4.954H37.0001V11.519L35.2601 11.535V7.025L33.6161 11.519H32.0261L30.3501 7.01V11.52H28.5821H28.5811Z" fill="#006FCF"/>
</g>
<defs>
<clipPath id="clip0_93_74">
<rect width="38" height="24" fill="white"/>
</clipPath>
</defs>
</svg>
