<svg width="50" height="20" viewBox="0 0 50 20" fill="none" xmlns="http://www.w3.org/2000/svg">
<path d="M9.14514 2.57916C9.71517 1.88493 10.1017 0.95255 9.99978 0C9.16585 0.0403489 8.14841 0.536007 7.55889 1.23104C7.02987 1.82598 6.56175 2.79713 6.68355 3.70972C7.61979 3.78884 8.55522 3.25402 9.14514 2.57916Z" fill="black"/>
<path d="M9.98927 3.88813C8.62916 3.80901 7.47368 4.63972 6.82448 4.63972C6.17488 4.63972 5.18058 3.92768 4.10508 3.94707C2.70559 3.96685 1.40719 4.73822 0.696686 5.96451C-0.764111 8.41709 0.310984 12.0564 1.73199 14.0541C2.42179 15.043 3.25328 16.1308 4.34868 16.0917C5.38399 16.0521 5.78958 15.439 7.04738 15.439C8.30477 15.439 8.67017 16.0917 9.76597 16.0719C10.902 16.0521 11.6125 15.083 12.3023 14.094C13.094 12.9666 13.4176 11.8788 13.4379 11.8195C13.4176 11.7997 11.2471 10.9883 11.2268 8.55554C11.2065 6.51832 12.9312 5.54915 13.0124 5.48942C12.0384 4.08591 10.5167 3.92768 9.98886 3.88813" fill="black"/>
<path d="M23.5442 1.13136C26.4991 1.13136 28.5571 3.11597 28.5571 6.00527C28.5571 8.90485 26.4568 10.8997 23.4703 10.8997H20.1987V15.9695H17.835V1.13136H23.5442ZM20.1987 8.96656H22.9108C24.9692 8.96656 26.1401 7.88703 26.1401 6.01556C26.1401 4.14448 24.9688 3.07483 22.9214 3.07483H20.1987V8.96656Z" fill="black"/>
<path d="M29.1436 12.8946C29.1436 10.9923 30.6316 9.90248 33.3753 9.73792L36.3196 9.56308V8.74028C36.3196 7.53772 35.5072 6.87948 34.0615 6.87948C32.8686 6.87948 32.003 7.47562 31.8244 8.39059H29.6921C29.7558 6.46808 31.6129 5.06972 34.1248 5.06972C36.8263 5.06972 38.5888 6.44751 38.5888 8.5864V15.9691H36.4045V14.1901H36.3517C35.7289 15.352 34.3566 16.0818 32.8686 16.0818C30.6738 16.0818 29.1436 14.8072 29.1436 12.8946ZM36.3196 11.9385V11.1054L33.692 11.27C32.2142 11.3626 31.4444 11.897 31.4444 12.8325C31.4444 13.7376 32.2462 14.3239 33.502 14.3239C35.1057 14.3239 36.3196 13.3262 36.3196 11.9385Z" fill="black"/>
<path d="M40.5969 19.9379V18.1594C40.7446 18.1796 41.1031 18.2001 41.2931 18.2001C42.3378 18.2001 42.9289 17.7689 43.2878 16.6578L43.499 15.9999L39.499 5.20343H41.9683L44.7547 13.9639H44.8075L47.5935 5.20343H49.9999L45.8522 16.5446C44.9021 19.1463 43.8152 20 41.5148 20C41.3354 20 40.7548 19.9794 40.5969 19.9379Z" fill="black"/>
</svg>
