<svg width="50" height="20" viewBox="0 0 50 20" fill="none" xmlns="http://www.w3.org/2000/svg">
<path d="M23.6541 9.7698V15.6324H21.8022V1.15912H26.6974C27.284 1.14912 27.8667 1.25598 28.4121 1.47355C28.9575 1.69112 29.4548 2.01512 29.8754 2.42691C30.2739 2.80137 30.5951 3.25125 30.8208 3.75082C31.0466 4.2504 31.1723 4.78988 31.1909 5.33842C31.2095 5.88697 31.1205 6.43382 30.9291 6.94773C30.7378 7.46164 30.4477 7.93252 30.0755 8.33347L29.8754 8.54598C29.0204 9.36491 27.878 9.81011 26.6974 9.78079L23.6541 9.7698ZM23.6541 2.93255V8.04034H26.7429C27.4287 8.06232 28.0909 7.79301 28.5711 7.30018C28.9146 6.93958 29.1453 6.48522 29.2344 5.99362C29.3235 5.50202 29.2672 4.99488 29.0724 4.53529C28.8775 4.0757 28.5528 3.68394 28.1387 3.40875C27.7245 3.13355 27.2391 2.98707 26.7429 2.98752L23.6541 2.93255ZM35.4491 5.40217C36.6316 5.34721 37.7885 5.7466 38.6835 6.52522C39.493 7.31301 39.9241 8.41224 39.8659 9.54629V15.6544H38.1032V14.251H38.0141C37.6979 14.7774 37.2509 15.2116 36.7172 15.5107C36.1835 15.8098 35.5815 15.9636 34.9707 15.9567C33.9737 15.9892 33.0014 15.6403 32.2493 14.9802C31.893 14.6875 31.6075 14.317 31.4143 13.8967C31.2211 13.4765 31.1253 13.0175 31.1342 12.5545C31.1132 12.0866 31.2035 11.6204 31.3974 11.1947C31.5914 10.769 31.8834 10.396 32.2493 10.1069C33.1469 9.45681 34.2333 9.12498 35.3382 9.16339C36.2787 9.12675 37.2119 9.33377 38.0486 9.7698V9.38873C38.0548 9.07367 37.9897 8.76132 37.8583 8.47534C37.7268 8.18936 37.5325 7.93723 37.2901 7.73805C36.8032 7.29222 36.1653 7.05099 35.5073 7.06385C35.0295 7.05931 34.5584 7.17755 34.1386 7.4074C33.7187 7.63725 33.364 7.97111 33.108 8.37743L31.4799 7.34415C31.9219 6.70623 32.5188 6.19287 33.2136 5.85295C33.9084 5.51302 34.678 5.35784 35.4491 5.40217ZM33.108 12.5985C33.1036 12.8358 33.1572 13.0705 33.2641 13.282C33.371 13.4935 33.5279 13.6753 33.721 13.8113C34.1267 14.1338 34.6305 14.3041 35.149 14.2932C35.9294 14.2913 36.677 13.9817 37.2337 13.4284C37.7885 12.9045 38.1032 12.1735 38.1032 11.4077C37.4029 10.9063 36.552 10.6642 35.6947 10.7225C35.0291 10.6961 34.3725 10.8848 33.821 11.2611C33.6026 11.4083 33.4234 11.6072 33.2991 11.8403C33.1747 12.0735 33.1091 12.3338 33.108 12.5985ZM50.0001 5.72828L43.8334 20H41.927L44.2572 15.0022L40.2115 5.72828H42.218L45.1504 12.8458L48.0046 5.72828H50.0001Z" fill="white"/>
<path d="M16.1833 8.50205C16.1833 7.93778 16.1397 7.3735 16.0505 6.81656H8.24658V10.0172H12.7052C12.6144 10.5258 12.4226 11.0108 12.1413 11.443C11.86 11.8752 11.4949 12.2458 11.068 12.5326V14.6101H13.7312C14.5409 13.8211 15.1775 12.8698 15.5999 11.8178C16.0222 10.7657 16.221 9.63621 16.1833 8.50205Z" fill="#4285F4"/>
<path d="M8.25674 16.6308C10.2692 16.6864 12.2272 15.9677 13.7322 14.621L11.0654 12.5325C10.4247 12.9462 9.69863 13.2074 8.94258 13.2961C8.18652 13.3848 7.42033 13.2987 6.70229 13.0443C5.98424 12.7899 5.33324 12.374 4.79879 11.8282C4.26434 11.2823 3.86052 10.6209 3.61803 9.89429H0.885742V12.0378C1.56945 13.4174 2.62125 14.5779 3.9232 15.3892C5.22514 16.2004 6.72575 16.6304 8.25674 16.6308Z" fill="#34A853"/>
<path d="M3.61835 9.90542C3.27234 8.87453 3.27234 7.75768 3.61835 6.72679V4.58328H0.886062C0.303561 5.74015 0 7.01899 0 8.3161C0 9.61321 0.303561 10.8921 0.886062 12.0489L3.61835 9.90542Z" fill="#FBBC04"/>
<path d="M8.25723 3.29154C9.4342 3.26989 10.5719 3.71769 11.4225 4.53734L13.7873 2.16849C12.2794 0.743167 10.2794 -0.0342763 8.21175 0.00116033C6.68983 0.00884788 5.19976 0.440861 3.90673 1.24931C2.6137 2.05775 1.56823 3.21104 0.88623 4.58131L3.61852 6.72665C3.93799 5.73749 4.55734 4.87409 5.38943 4.2579C6.22152 3.64171 7.22448 3.30374 8.25723 3.29154Z" fill="#EA4335"/>
</svg>
