<svg width="84" height="20" viewBox="0 0 84 20" fill="none" xmlns="http://www.w3.org/2000/svg">
<g clip-path="url(#clip0_93_37)">
<path fill-rule="evenodd" clip-rule="evenodd" d="M55.9908 0C54.3037 0 52.936 1.3674 52.936 3.05441V16.9458C52.936 18.6326 54.3037 20 55.9908 20H80.8854C82.5725 20 83.9402 18.6326 83.9402 16.9458V3.05441C83.9402 1.36765 82.5725 0 80.8854 0L55.9908 0ZM60.3514 13.9669V10.4459H62.567C64.5911 10.4459 65.6673 9.31093 65.6673 7.59143C65.6673 5.87193 64.5911 4.84263 62.567 4.84263H58.9242V13.9669H60.3514ZM60.3514 6.19929H62.2393C63.5496 6.19929 64.1933 6.73755 64.1933 7.63816C64.1933 8.53876 63.573 9.07703 62.2977 9.07703H60.3514V6.19929ZM68.1839 14.1541C69.2719 14.1541 69.9856 13.6743 70.3132 12.8556C70.4068 13.7677 70.9569 14.2358 72.1501 13.9202L72.1619 12.9491C71.6821 12.9958 71.5885 12.8204 71.5885 12.3174V9.9309C71.5885 8.52727 70.6642 7.69688 68.9561 7.69688C67.2712 7.69688 66.3002 8.53901 66.3002 9.96589H67.6107C67.6107 9.28769 68.0903 8.87811 68.9327 8.87811C69.8218 8.87811 70.2314 9.2642 70.2196 9.93115V10.2353L68.7103 10.3989C67.0138 10.5861 66.078 11.2296 66.078 12.3526C66.078 13.2767 66.733 14.1541 68.1839 14.1541ZM68.4763 13.1013C67.7392 13.1013 67.4469 12.7034 67.4469 12.3056C67.4469 11.7676 68.0553 11.522 69.2485 11.3815L70.1846 11.2763C70.126 12.3059 69.4358 13.1013 68.4763 13.1013ZM76.4957 14.4232C75.8991 15.8736 74.9396 16.3064 73.4421 16.3064H72.7985V15.1134H73.4889C74.3078 15.1134 74.7056 14.856 75.1386 14.1191L72.4827 7.8843H73.9567L75.8523 12.4348L77.537 7.8843H78.976L76.4957 14.4232Z" fill="white"/>
<path d="M7.27033 8.79116C5.31592 8.36709 4.44512 8.20142 4.44512 7.44825C4.44512 6.74006 5.03436 6.38721 6.21282 6.38721C7.24915 6.38721 8.00687 6.84026 8.56433 7.72737C8.60645 7.79584 8.69341 7.81958 8.76435 7.78285L10.9634 6.67159C10.982 6.66216 10.9985 6.64895 11.0119 6.63277C11.0253 6.6166 11.0353 6.5978 11.0412 6.57754C11.0471 6.55729 11.0488 6.53602 11.0463 6.51506C11.0438 6.49409 11.037 6.47388 11.0264 6.45568C10.1138 4.87337 8.42761 4.00725 6.20765 4.00725C3.29031 4.00725 1.47803 5.44462 1.47803 7.73012C1.47803 10.1576 3.68518 10.771 5.64206 11.1949C7.59894 11.6189 8.47244 11.7846 8.47244 12.5378C8.47244 13.2909 7.83592 13.646 6.56532 13.646C5.39203 13.646 4.52149 13.1088 3.99532 12.0665C3.97657 12.0296 3.94425 12.0017 3.90537 11.9889C3.86648 11.9761 3.82418 11.9794 3.78766 11.998L1.5938 13.0853C1.57557 13.0944 1.5593 13.1072 1.54596 13.1228C1.53262 13.1383 1.52247 13.1565 1.5161 13.1761C1.50973 13.1957 1.50726 13.2164 1.50884 13.2369C1.51043 13.2575 1.51603 13.2776 1.52532 13.2959C2.39612 15.0467 4.18204 16.0315 6.56779 16.0315C9.60607 16.0315 11.442 14.6176 11.442 12.2611C11.442 9.90467 9.22475 9.22022 7.27033 8.79641V8.79116ZM19.0547 4.00725C17.8078 4.00725 16.7057 4.44956 15.914 5.23671C15.864 5.28419 15.7824 5.24996 15.7824 5.18149V0.155437C15.7825 0.134837 15.7785 0.11443 15.7707 0.0954099C15.7629 0.0763899 15.7514 0.0591387 15.737 0.0446656C15.7225 0.0301925 15.7054 0.0187881 15.6865 0.0111196C15.6677 0.00345111 15.6475 -0.000327465 15.6272 4.91059e-06H12.8757C12.8554 -0.000327465 12.8352 0.00345111 12.8164 0.0111196C12.7975 0.0187881 12.7804 0.0301925 12.7659 0.0446656C12.7515 0.0591387 12.74 0.0763899 12.7322 0.0954099C12.7244 0.11443 12.7204 0.134837 12.7205 0.155437V15.7551C12.7204 15.7757 12.7245 15.7961 12.7323 15.8151C12.7401 15.8341 12.7515 15.8513 12.766 15.8657C12.7804 15.8802 12.7976 15.8915 12.8164 15.8992C12.8352 15.9069 12.8554 15.9106 12.8757 15.9103H15.6272C15.6475 15.9106 15.6677 15.9069 15.6865 15.8992C15.7053 15.8915 15.7225 15.8802 15.7369 15.8657C15.7514 15.8513 15.7628 15.8341 15.7706 15.8151C15.7784 15.7961 15.7824 15.7757 15.7824 15.7551V8.91211C15.7824 7.59043 16.7948 6.57688 18.1603 6.57688C19.5255 6.57688 20.5145 7.56944 20.5145 8.91211V15.7551C20.5145 15.7757 20.5185 15.7961 20.5263 15.8151C20.5341 15.8341 20.5456 15.8513 20.56 15.8657C20.5745 15.8802 20.5916 15.8915 20.6104 15.8992C20.6293 15.9069 20.6494 15.9106 20.6697 15.9103H23.4212C23.4415 15.9106 23.4617 15.9069 23.4805 15.8992C23.4993 15.8915 23.5165 15.8802 23.5309 15.8657C23.5454 15.8513 23.5568 15.8341 23.5646 15.8151C23.5725 15.7961 23.5765 15.7757 23.5764 15.7551V8.91211C23.5764 6.03711 21.693 4.00975 19.0547 4.00975V4.00725ZM29.1633 3.5622C27.6693 3.5622 26.2647 4.01775 25.2596 4.67846C25.2265 4.69998 25.2029 4.73363 25.1936 4.77241C25.1843 4.81119 25.1901 4.8521 25.2099 4.88662L26.4223 6.95871C26.4672 7.03243 26.5618 7.05867 26.6354 7.01369C27.3998 6.55266 28.274 6.31244 29.1633 6.31899C31.5648 6.31899 33.3298 8.0145 33.3298 10.2548C33.3298 12.1639 31.9173 13.5776 30.126 13.5776C28.6662 13.5776 27.6535 12.7272 27.6535 11.5267C27.6535 10.8395 27.9454 10.276 28.7056 9.87843C28.7243 9.86904 28.7408 9.8558 28.7541 9.83955C28.7674 9.8233 28.7773 9.80441 28.783 9.78408C28.7887 9.76375 28.7901 9.74244 28.7873 9.7215C28.7844 9.70057 28.7772 9.68048 28.7662 9.66253L27.622 7.72487C27.6033 7.69352 27.5743 7.66977 27.5402 7.65772C27.5061 7.64568 27.4689 7.6461 27.435 7.6589C25.9016 8.22765 24.8256 9.59681 24.8256 11.4345C24.8256 14.2148 27.0379 16.2894 30.1235 16.2894C33.7271 16.2894 36.3181 13.791 36.3181 10.2075C36.3181 6.36622 33.3037 3.5597 29.1581 3.5597L29.1633 3.5622ZM44.3643 3.98626C42.9728 3.98626 41.7313 4.49954 40.8238 5.40514C40.813 5.41603 40.7993 5.42345 40.7844 5.42646C40.7695 5.42948 40.754 5.42795 40.74 5.42207C40.7259 5.4162 40.7139 5.40623 40.7054 5.39344C40.6969 5.38064 40.6923 5.36559 40.6922 5.35016V4.25989C40.6923 4.23931 40.6883 4.21893 40.6804 4.19994C40.6726 4.18095 40.6612 4.16373 40.6467 4.14928C40.6323 4.13484 40.6151 4.12345 40.5963 4.1158C40.5775 4.10815 40.5573 4.10438 40.537 4.10471H37.8567C37.8364 4.10438 37.8162 4.10815 37.7974 4.1158C37.7786 4.12345 37.7614 4.13484 37.747 4.14928C37.7326 4.16373 37.7211 4.18095 37.7133 4.19994C37.7055 4.21893 37.7015 4.23931 37.7015 4.25989V19.8358C37.7014 19.8564 37.7054 19.8768 37.7132 19.8959C37.721 19.9149 37.7325 19.9321 37.7469 19.9466C37.7614 19.9611 37.7785 19.9725 37.7974 19.9801C37.8162 19.9878 37.8364 19.9916 37.8567 19.9913H40.608C40.6283 19.9916 40.6485 19.9879 40.6674 19.9802C40.6863 19.9726 40.7034 19.9612 40.7179 19.9467C40.7324 19.9322 40.7439 19.9149 40.7517 19.8959C40.7595 19.8769 40.7635 19.8564 40.7634 19.8358V14.7281C40.7634 14.6596 40.845 14.6256 40.8947 14.6703C41.7998 15.5127 42.9964 16.0053 44.367 16.0053C47.5945 16.0053 50.1118 13.3906 50.1118 9.99438C50.1118 6.59787 47.5918 3.98351 44.367 3.98351L44.3643 3.98626ZM43.8463 13.3672C42.0101 13.3672 40.6186 11.9058 40.6186 9.97314C40.6186 8.04074 42.0074 6.57963 43.8463 6.57963C45.6852 6.57963 47.0711 8.017 47.0711 9.97314C47.0711 11.9293 45.7032 13.3669 43.8436 13.3669L43.8463 13.3672Z" fill="white"/>
</g>
<defs>
<clipPath id="clip0_93_37">
<rect width="84" height="20" fill="white"/>
</clipPath>
</defs>
</svg>
